<svg role="img" viewBox="0 0 40 40" xmlns="http://www.w3.org/2000/svg" id="Codeforces--Streamline-Simple-Icons" height="40" width="40"><desc>Codeforces Streamline Icon: https://streamlinehq.com</desc><title>Codeforces</title><path d="M7.5 12.5C8.88 12.5 10 13.620000000000001 10 15v17.5c0 1.38 -1.12 2.5 -2.5 2.5h-5C1.1216666666666668 35 0 33.88 0 32.5V15c0 -1.38 1.1216666666666668 -2.5 2.5 -2.5h5zm15 -7.5c1.38 0 2.5 1.12 2.5 2.5v25c0 1.38 -1.12 2.5 -2.5 2.5h-5c-1.3783333333333334 0 -2.5 -1.12 -2.5 -2.5v-25c0 -1.38 1.1216666666666668 -2.5 2.5 -2.5h5zm15 12.5c1.38 0 2.5 1.12 2.5 2.5v12.5c0 1.38 -1.12 2.5 -2.5 2.5h-5c-1.38 0 -2.5 -1.12 -2.5 -2.5V20c0 -1.38 1.12 -2.5 2.5 -2.5h5z" fill="#000000" stroke-width="1.6667"></path></svg>