<svg role="img" viewBox="0 0 40 40" xmlns="http://www.w3.org/2000/svg" id="Codechef--Streamline-Simple-Icons" height="40" width="40"><desc>Codechef Streamline Icon: https://streamlinehq.com</desc><title>CodeChef</title><path d="M18.762333333333334 0.0065c-0.6166666666666667 0.016833333333333332 -1.2255 0.06833333333333334 -1.8338333333333334 0.15833333333333335C16.027333333333335 0.255 15.127666666666666 0.706 14.136666666666667 1.1566666666666667c-1.2616666666666667 0.5406666666666667 -2.5245 1.081 -3.696 1.1711666666666667 -1.9826666666666668 0.6308333333333334 -2.6133333333333337 1.5316666666666667 -3.154166666666667 2.252666666666667 0 0.09 -0.09 0.17983333333333335 -0.09 0.17983333333333335 -0.7208333333333333 1.4416666666666667 -0.8121666666666667 2.8833333333333333 -0.5416666666666667 4.325333333333334 0.27016666666666667 0.9011666666666667 0.631 1.7136666666666667 0.9013333333333333 2.5246666666666666 0.6308333333333334 1.7123333333333335 1.2630000000000001 3.3345000000000002 1.5333333333333334 5.227 0.27033333333333337 0.5406666666666667 0.5391666666666667 1.2618333333333334 0.7193333333333334 1.9828333333333334 0.45066666666666666 1.4418333333333333 0.9033333333333334 3.0638333333333336 2.255 4.325333333333334l0.009500000000000001 -0.004666666666666667c0.02916666666666667 0.030500000000000003 0.050166666666666665 0.0645 0.08033333333333334 0.09466666666666668 0.012 -0.006 0.0235 -0.0105 0.035500000000000004 -0.0165l-0.035500000000000004 -0.9748333333333333c1.0815000000000001 -1.6221666666666668 2.6121666666666665 -2.7035000000000005 4.775 -3.154166666666667 0.8658333333333333 -0.18216666666666667 1.8016666666666667 -0.2495 2.7708333333333335 -0.213a14.622166666666669 14.622166666666669 0 0 1 2.998 0.3928333333333333c2.4331666666666667 0.6308333333333334 4.325 1.893 4.415333333333334 2.9743333333333335 0.045500000000000006 0.5915 0.06633333333333334 1.1586666666666667 0.05433333333333333 1.7273333333333334 -0.0016666666666666668 0.10666666666666667 -0.007666666666666667 0.21416666666666667 -0.011666666666666667 0.3216666666666667l0.22699999999999998 0.11366666666666667c0.125 -0.0625 0.23733333333333334 -0.17833333333333334 0.3431666666666667 -0.317 0.0013333333333333335 -0.0016666666666666668 0.0033333333333333335 -0.0033333333333333335 0.004666666666666667 -0.004666666666666667 0.003 -0.0038333333333333336 0.0065 -0.010166666666666668 0.009500000000000001 -0.014166666666666668 0.066 -0.08933333333333333 0.12450000000000001 -0.20600000000000002 0.18450000000000003 -0.32183333333333336 0.03133333333333334 -0.06283333333333334 0.062 -0.14433333333333334 0.09233333333333334 -0.21533333333333335 0.3413333333333334 -0.7703333333333333 0.6033333333333334 -1.9226666666666667 0.8966666666666667 -3.2725 0.09016666666666667 -0.4505 0.18200000000000002 -0.8106666666666666 0.27216666666666667 -1.1711666666666667 0.721 -1.6221666666666668 1.711 -3.0636666666666668 2.702166666666667 -4.415333333333334 1.6221666666666668 -2.253 3.154666666666667 -4.327 2.9743333333333335 -6.760166666666667 -2.9733333333333336 -5.768 -7.119666666666666 -6.669499999999999 -9.2825 -7.120000000000001 -0.3605 -0.09016666666666667 -0.5388333333333333 -0.08983333333333335 -0.8093333333333333 -0.18 -2.2303333333333337 -0.40549999999999997 -4.1575 -0.6588333333333334 -6.007666666666667 -0.6080000000000001zm8.404666666666667 23.964666666666666a16.433666666666667 16.433666666666667 0 0 0 -0.05433333333333333 -1.6373333333333335c-0.09016666666666667 -1.1716666666666666 -1.9820000000000002 -2.4333333333333336 -4.505333333333334 -3.0643333333333334 -0.98 -0.22266666666666668 -1.9606666666666666 -0.35700000000000004 -2.908 -0.39266666666666666 -0.8983333333333334 -0.022833333333333334 -1.776166666666667 0.04133333333333333 -2.591 0.21283333333333335 -2.0726666666666667 0.45066666666666666 -3.693666666666667 1.5321666666666667 -4.6850000000000005 3.154166666666667l0.08516666666666667 2.3850000000000002c1.112 -0.5930000000000001 2.8876666666666666 -1.4578333333333335 5.2316666666666665 -1.6656666666666666 0.11033333333333332 -0.009833333333333333 0.228 -0.009833333333333333 0.3406666666666667 -0.0165 0.19616666666666668 -0.021666666666666667 0.4445 -0.07333333333333333 0.7406666666666667 -0.07333333333333333 2.6791666666666667 0 5.447000000000001 0.8893333333333333 8.127833333333333 2.7471666666666668 0.065 -0.4573333333333333 0.10183333333333335 -0.9150000000000001 0.11833333333333333 -1.3723333333333334l0.07333333333333333 0.03783333333333334c0.004666666666666667 -0.10366666666666667 0.023833333333333335 -0.21133333333333335 0.026 -0.31466666666666665zM18.76 0.09633333333333333c0.2065 -0.005666666666666666 0.42300000000000004 0.016666666666666666 0.6316666666666667 0.019000000000000003 -0.38333333333333336 -0.003666666666666667 -0.7646666666666667 0.004333333333333333 -1.1451666666666669 0.026 0.17166666666666666 -0.010166666666666668 0.341 -0.04033333333333333 0.5133333333333333 -0.045zm0.8305 0.026c1.092 0.023333333333333334 2.2091666666666665 0.1185 3.3978333333333333 0.3005 -1.139 -0.1645 -2.2743333333333333 -0.2785 -3.3978333333333333 -0.3005zm-2.1911666666666667 0.09233333333333334c-0.12666666666666668 0.014499999999999999 -0.2545 0.022166666666666668 -0.38083333333333336 0.04016666666666667 -1.3613333333333333 0.1945 -2.9570000000000003 1.1691666666666667 -4.583333333333334 1.7416666666666667 0.5908333333333333 -0.2205 1.1905000000000001 -0.4928333333333334 1.7911666666666668 -0.7501666666666666C15.1275 0.7956666666666666 16.117500000000003 0.345 16.9285 0.25483333333333336c0.1565 -0.023166666666666665 0.31433333333333335 -0.022166666666666668 0.4708333333333333 -0.04016666666666667zm-0.38083333333333336 0.4c0.27033333333333337 0 0.6311666666666667 -0.0003333333333333334 0.9015000000000001 0.08983333333333335 -0.2375 -0.059500000000000004 -0.43250000000000005 -0.043333333333333335 -0.6176666666666667 -0.02366666666666667a1.9566666666666666 1.9566666666666666 0 0 1 0.5276666666666667 0.11349999999999999c0.9660000000000001 1.668666666666667 -0.7106666666666667 8.7985 -1.131 13.582 0.25983333333333336 1.7126666666666668 0.523 3.327166666666667 0.7713333333333333 4.5335 -1.1715 -2.9738333333333333 -2.3445 -8.201666666666668 -2.5246666666666666 -12.256666666666668 -0.09 -1.6221666666666668 0.0016666666666666668 -3.0643333333333334 0.36200000000000004 -4.145666666666667C15.668333333333333 1.4261666666666668 16.207333333333334 0.7046666666666667 17.0185 0.6145zm5.226833333333333 0.4516666666666667c-1.3516666666666668 3.514666666666667 -1.5306666666666666 10.182 -1.6208333333333333 12.254666666666667 -0.09 0.9011666666666667 -0.0001666666666666667 2.8833333333333333 0.09 4.325333333333334 0 0.3605 0.09 0.7208333333333333 0.09 1.0813333333333335 0 -0.3605 -0.09 -0.631 -0.09 -0.9913333333333334 -0.721 -5.407000000000001 -1.6233333333333333 -11.893666666666666 1.5308333333333333 -16.67zm5.586666666666667 0.6295c-0.45066666666666666 3.6046666666666667 -2.341166666666667 5.318333333333333 -2.972 8.833 -0.18016666666666667 2.7936666666666667 -0.5416666666666667 6.037 -0.6316666666666667 8.830666666666668 -0.09016666666666667 -2.7936666666666667 -0.0011666666666666668 -5.7668333333333335 0.4495 -8.740666666666666 0.4505 -3.064 1.4418333333333333 -6.129333333333333 3.154166666666667 -8.923zm-17.30166666666667 0.7216666666666667c-0.5968333333333333 0.199 -1.0533333333333335 0.41333333333333333 -1.4291666666666667 0.6341666666666667 0.38616666666666666 -0.22633333333333336 0.8326666666666667 -0.44433333333333336 1.4291666666666667 -0.6341666666666667zm0.3501666666666667 0.329c0.3591666666666667 0.004166666666666667 0.7306666666666667 0.12233333333333335 1.0010000000000001 0.3928333333333333 -0.011166666666666667 -0.006666666666666667 -0.013 -0.0055000000000000005 -0.02366666666666667 -0.011833333333333335 0.22183333333333333 0.15483333333333332 0.44433333333333336 0.3488333333333334 0.6553333333333333 0.6411666666666667 -0.3393333333333334 1.6121666666666667 0.42550000000000004 5.052833333333333 0.06633333333333334 7.782333333333335 0.12716666666666668 2.5808333333333335 0.11950000000000001 5.300666666666667 1.415 7.432333333333333 -1.6326666666666667 -2.5178333333333334 -1.96 -5.729166666666667 -2.2030000000000003 -8.726666666666667 -0.188 -1.8178333333333334 -0.33916666666666667 -3.4948333333333337 -0.7736666666666667 -4.8388333333333335 -0.24 -0.5078333333333334 -0.4473333333333334 -0.9575 -0.6388333333333334 -1.3699999999999999 -0.04116666666666667 -0.061500000000000006 -0.0745 -0.13066666666666668 -0.11833333333333333 -0.18916666666666668 -0.18033333333333335 -0.18033333333333335 -0.2698333333333333 -0.44933333333333336 -0.2698333333333333 -0.6295 0 -0.09 0.08983333333333335 -0.26966666666666667 0.18 -0.26966666666666667 0.09 -0.09016666666666667 0.2693333333333333 -0.09216666666666667 0.35950000000000004 -0.18233333333333335a1.6883333333333332 1.6883333333333332 0 0 1 0.3501666666666667 -0.03066666666666667zm-2.2431666666666668 1.0221666666666667c-0.10066666666666667 0.0335 -0.15383333333333332 0.06833333333333334 -0.2341666666666667 0.10166666666666667 0.2946666666666667 -0.05666666666666667 0.6028333333333334 0.0565 0.866 0.53 -0.31283333333333335 1.486 0.7273333333333334 5.614166666666667 0.7146666666666667 8.506666666666668 0.5206666666666667 3.0796666666666668 0.916 6.416333333333334 2.6193333333333335 8.525333333333334C10.6205 19.179333333333336 9.81 15.214333333333334 9.179333333333334 11.88 8.638333333333334 9.266666666666666 8.1875 7.014333333333333 7.286333333333334 6.293333333333333c-0.09 -0.18016666666666667 -0.17983333333333335 -0.27166666666666667 -0.17983333333333335 -0.45183333333333336 0 -0.27033333333333337 -0.0003333333333333334 -0.631 0.17983333333333335 -0.9915 -0.462 1.0561666666666667 -0.6745 2.112166666666667 -0.6176666666666667 3.1683333333333334 -0.07416666666666667 -1.0811666666666668 0.14283333333333334 -2.1508333333333334 0.6176666666666667 -3.1683333333333334 0 -0.09 0.09 -0.08966666666666667 0.09 -0.17983333333333335 0.02 -0.02666666666666667 0.05233333333333333 -0.05816666666666667 0.07333333333333333 -0.08516666666666667 0.10300000000000001 -0.16383333333333333 0.218 -0.315 0.3761666666666667 -0.42833333333333334 0.09283333333333334 -0.10250000000000001 0.16083333333333336 -0.1985 0.265 -0.30283333333333334 -0.08766666666666667 0.0925 -0.14533333333333334 0.18200000000000002 -0.22250000000000003 0.2745 0.045500000000000006 -0.03 0.08716666666666667 -0.06133333333333334 0.13966666666666666 -0.0875 0.18016666666666667 -0.18033333333333335 0.35900000000000004 -0.27216666666666667 0.6293333333333333 -0.27216666666666667zm-0.6293333333333333 0.27216666666666667c-0.006333333333333333 0.0125 -0.012666666666666666 0.018500000000000003 -0.019000000000000003 0.03066666666666667 0.020833333333333336 -0.0165 0.04033333333333333 -0.034666666666666665 0.06166666666666667 -0.04966666666666667 -0.012333333333333335 0.0061666666666666675 -0.030333333333333337 0.012833333333333334 -0.04266666666666667 0.019000000000000003zm24.601333333333333 1.8905000000000003c-0.002833333333333333 0.008666666666666666 -0.006666666666666667 0.017333333333333333 -0.009500000000000001 0.026 0.063 -0.008333333333333333 0.12516666666666668 -0.028833333333333332 0.18916666666666668 -0.026 -0.063 -0.003666666666666667 -0.12716666666666668 0.017166666666666667 -0.19166666666666668 0.03316666666666667 -1.439 4.4030000000000005 -3.1456666666666666 8.807333333333334 -4.853 13.210333333333333a0.03066666666666667 0.03066666666666667 0 0 1 -0.0025 0.004666666666666667c-0.1456666666666667 0.7753333333333333 -0.39 1.4736666666666667 -0.8991666666666667 1.983 0.721 -0.8111666666666667 0.809 -1.9845000000000002 0.8991666666666667 -3.4263333333333335 0.09 -1.3516666666666668 0.09066666666666666 -2.7935 0.8116666666666666 -4.2355 0 -0.08850000000000001 0.002 -0.17633333333333334 0.0875 -0.265 0.0005 -0.0015 0.002 -0.0031666666666666666 0.0025 -0.004666666666666667 0.16216666666666668 -0.5873333333333334 0.3366666666666667 -1.1475 0.5276666666666667 -1.6966666666666668 0.6971666666666667 -2.1493333333333338 1.8993333333333333 -5.2755 3.355166666666667 -5.5675 0.027166666666666665 -0.008666666666666666 0.05666666666666667 -0.03 0.08283333333333334 -0.035500000000000004zM13.954333333333334 27.018833333333337l-0.5396666666666666 0.17983333333333335c0.2705 0.3605 0.44933333333333336 0.6316666666666667 0.6295 0.7216666666666667 0.18016666666666667 0.09 0.36133333333333334 0.18 0.6316666666666667 0.18 0.09016666666666667 0 0.26966666666666667 0 0.35983333333333334 -0.09l1.3533333333333335 -0.44966666666666666c0.09016666666666667 0 0.1796666666666667 -0.09 0.2698333333333333 -0.09 0.18016666666666667 0 0.2693333333333333 0 0.4495 0.09l0.452 0.44966666666666666 0.4495 -0.09c-0.18016666666666667 -0.27033333333333337 -0.4491666666666667 -0.5393333333333333 -0.6293333333333333 -0.6293333333333333 -0.18033333333333335 -0.09016666666666667 -0.36150000000000004 -0.18233333333333335 -0.6316666666666667 -0.18233333333333335h-0.18l-1.4433333333333334 0.542h-0.26966666666666667c-0.18033333333333335 0 -0.35950000000000004 0 -0.44966666666666666 -0.09 -0.09 -0.09 -0.27166666666666667 -0.2715 -0.452 -0.5418333333333334zm-4.3255 0.9016666666666667c-0.4505 0.27016666666666667 -1.0816666666666668 0.7206666666666667 -1.9828333333333334 1.0811666666666668 -0.9011666666666667 0.3605 -1.6223333333333334 0.7208333333333333 -1.9828333333333334 1.0813333333333335 -0.3605 0.3605 -0.5395 0.721 -0.5395 1.0813333333333335 0 0.18033333333333335 0.0895 0.272 0.26966666666666667 0.36200000000000004 0.09 0.09016666666666667 0.272 0.08983333333333335 0.36200000000000004 0.18 1.2616666666666667 0.5406666666666667 2.522166666666667 1.1698333333333333 3.693666666666667 1.8005000000000002 0.18033333333333335 0.09016666666666667 0.36183333333333334 0.272 0.452 0.3621666666666667 0.09 0.09 0.1796666666666667 0.09 0.26966666666666667 0.09 0.18033333333333335 0 0.4491666666666667 -0.08966666666666667 0.6295 -0.27 0.18016666666666667 -0.18 0.272 -0.3616666666666667 0.272 -0.5416666666666667 0 -0.18033333333333335 -0.09166666666666667 -0.26966666666666667 -0.272 -0.3596666666666667 0 0 -0.7213333333333334 -0.36083333333333334 -1.983 -0.9016666666666667 -0.8109999999999999 -0.36033333333333334 -1.5298333333333334 -0.721 -1.9805 -0.9913333333333334 0.2705 -0.45066666666666666 0.81 -0.8108333333333333 1.621 -1.1713333333333333 0.9011666666666667 -0.3605 1.5326666666666666 -0.721 1.8030000000000002 -0.9913333333333334 0.09 -0.09016666666666667 0.09 -0.1796666666666667 0.09 -0.2698333333333333 0 -0.09 -0.08983333333333335 -0.2718333333333333 -0.18 -0.36200000000000004 -0.09 -0.09 -0.27166666666666667 -0.17983333333333335 -0.45183333333333336 -0.17983333333333335zm18.745 0c-0.09 0 -0.26966666666666667 0.0895 -0.3596666666666667 0.1796666666666667 -0.09016666666666667 0.18016666666666667 -0.18216666666666667 0.272 -0.18216666666666667 0.36200000000000004v0.09c0.27033333333333337 0.27033333333333337 0.6328333333333334 0.4491666666666667 1.1735 0.6293333333333333 0.45066666666666666 0.09 0.9005000000000001 0.272 1.3511666666666666 0.36200000000000004 0.5406666666666667 0.18033333333333335 0.9011666666666667 0.4488333333333333 1.0813333333333335 0.8093333333333333v0.09216666666666667c0 0.09016666666666667 -0.18133333333333332 0.2693333333333333 -0.5418333333333334 0.44966666666666666 -0.18033333333333335 0.09 -0.5408333333333334 0.3611666666666667 -0.9915 0.7216666666666667 -0.4505 0.27033333333333337 -0.721 0.5393333333333333 -0.9913333333333334 0.6293333333333333 -0.3605 0.18033333333333335 -0.6293333333333333 0.3616666666666667 -0.7193333333333334 0.542 -0.09016666666666667 0.09 -0.09 0.17950000000000002 -0.09 0.26966666666666667 0 0.18016666666666667 0.08983333333333335 0.17950000000000002 0.18 0.3596666666666667 0.09 0.18016666666666667 0.2693333333333333 0.18216666666666667 0.35950000000000004 0.18216666666666667 0.09 0 0.1796666666666667 -0.09233333333333334 0.2698333333333333 -0.09233333333333334 0.4505 -0.27033333333333337 1.082 -0.6303333333333333 1.8030000000000002 -1.2611666666666668 0.8109999999999999 -0.6306666666666667 1.4425000000000001 -1.0806666666666667 1.8030000000000002 -1.351 0.3605 -0.18033333333333335 0.5395 -0.36150000000000004 0.5395 -0.6316666666666667 0 -0.09016666666666667 0.0003333333333333334 -0.26966666666666667 -0.17983333333333335 -0.35983333333333334 -0.6308333333333334 -0.7208333333333333 -1.5308333333333333 -1.1703333333333334 -2.6123333333333334 -1.5308333333333333 -0.18016666666666667 -0.09016666666666667 -0.45066666666666666 -0.18200000000000002 -0.9913333333333334 -0.27216666666666667 -0.27033333333333337 -0.09 -0.5415000000000001 -0.17983333333333335 -0.7216666666666667 -0.17983333333333335zm-4.957166666666667 1.351c-0.45066666666666666 0 -0.8109999999999999 0.09166666666666667 -1.0813333333333335 0.36200000000000004 -0.3605 0.27033333333333337 -0.4498333333333333 0.7205 -0.3596666666666667 1.2611666666666668 0 0.4505 0.17916666666666667 0.8108333333333333 0.4495 1.1711666666666667 0.27033333333333337 0.3605 0.631 0.542 0.9915 0.542 0.27033333333333337 0 0.4513333333333333 -0.09216666666666667 0.7216666666666667 -0.18233333333333335 0.4505 -0.27033333333333337 0.6316666666666667 -0.7198333333333333 0.6316666666666667 -1.5308333333333333 0 -0.6308333333333334 -0.18166666666666667 -1.0808333333333333 -0.45183333333333336 -1.3511666666666666 -0.27033333333333337 -0.18016666666666667 -0.541 -0.272 -0.9016666666666667 -0.272zm-7.479500000000001 0.09c-0.45066666666666666 0 -0.8109999999999999 0.09166666666666667 -1.0813333333333335 0.36183333333333334 -0.3605 0.27033333333333337 -0.45000000000000007 0.7205 -0.3596666666666667 1.2611666666666668 0 0.45066666666666666 0.17916666666666667 0.8108333333333333 0.4495 1.1713333333333333s0.631 0.5418333333333334 0.9915 0.5418333333333334c0.27033333333333337 0 0.4513333333333333 -0.092 0.7216666666666667 -0.18216666666666667 0.4505 -0.27033333333333337 0.6293333333333333 -0.72 0.6293333333333333 -1.531 0 -0.7208333333333333 -0.17916666666666667 -1.1708333333333334 -0.4495 -1.351 -0.27033333333333337 -0.18033333333333335 -0.5411666666666667 -0.27216666666666667 -0.9016666666666667 -0.27216666666666667zm0 1.0835000000000001c0.27033333333333337 0 0.45183333333333336 0.17933333333333334 0.45183333333333336 0.44966666666666666 0 0.27033333333333337 -0.27166666666666667 0.4495 -0.45183333333333336 0.4495 -0.27033333333333337 0 -0.44966666666666666 -0.17916666666666667 -0.44966666666666666 -0.4495s0.17933333333333334 -0.44966666666666666 0.44966666666666666 -0.44966666666666666zm7.299666666666668 0.09c0.27033333333333337 0 0.45183333333333336 0.17916666666666667 0.45183333333333336 0.4495 0 0.18033333333333335 -0.18166666666666667 0.44966666666666666 -0.45183333333333336 0.44966666666666666 -0.27033333333333337 0 -0.44966666666666666 -0.17933333333333334 -0.44966666666666666 -0.44966666666666666 0 -0.27033333333333337 0.17933333333333334 -0.4495 0.44966666666666666 -0.4495zm-4.505333333333334 3.5138333333333334 0.2698333333333333 0.5395c0.09 0.18016666666666667 0.17933333333333334 0.27166666666666667 0.3596666666666667 0.45183333333333336 0.09 0.09 0.27166666666666667 0.2698333333333333 0.452 0.2698333333333333h0.1796666666666667c0.18033333333333335 0 0.26966666666666667 0 0.3596666666666667 -0.09 0.09016666666666667 -0.09 0.272 -0.08966666666666667 0.3621666666666667 -0.17983333333333335l0.26966666666666667 -0.26966666666666667c0.09 -0.09 0.18 -0.18200000000000002 0.18 -0.27216666666666667 0.09 -0.09 0.0895 -0.1796666666666667 0.1796666666666667 -0.26966666666666667 0 -0.09016666666666667 0.09 -0.18 0.09 -0.18 -0.09016666666666667 0.18033333333333335 -0.26966666666666667 0.3593333333333334 -0.3596666666666667 0.5396666666666666 -0.18033333333333335 0.09 -0.2693333333333333 0.272 -0.44966666666666666 0.272 -0.18016666666666667 0.09016666666666667 -0.3616666666666667 0.09 -0.5418333333333334 0.09s-0.35950000000000004 0.0001666666666666667 -0.4495 -0.09c-0.18033333333333335 0 -0.272 -0.08966666666666667 -0.3621666666666667 -0.17983333333333335l-0.26966666666666667 -0.272c-0.09 -0.09016666666666667 -0.1796666666666667 -0.26966666666666667 -0.2698333333333333 -0.3596666666666667zm-1.4433333333333334 1.713c-1.8925 0 -3.0628333333333333 2.522666666666667 -5.766333333333334 0.2698333333333333 -0.721 4.415666666666667 4.597166666666667 4.776666666666667 6.8500000000000005 2.884333333333333 1.532 -1.3516666666666668 1.0791666666666666 -3.2441666666666666 -1.0836666666666668 -3.154166666666667zm4.777333333333334 0c-2.1628333333333334 -0.09 -2.6133333333333337 1.8025 -1.0813333333333335 3.154166666666667 2.253 1.8925 7.568666666666667 1.5313333333333332 6.847833333333333 -2.884333333333333 -2.7035000000000005 2.2528333333333332 -3.783833333333334 -0.2698333333333333 -5.766500000000001 -0.2698333333333333z" fill="#000000" stroke-width="1.6667"></path>
</svg>