<svg role="img" viewBox="0 0 40 40" xmlns="http://www.w3.org/2000/svg" id="Geeksforgeeks--Streamline-Simple-Icons" height="40" width="40"><desc>Geeksforgeeks Streamline Icon: https://streamlinehq.com</desc><title>GeeksforGeeks</title><path d="M35.75 23.858333333333334c-0.2383333333333333 0.46666666666666673 -0.5566666666666668 0.8866666666666667 -0.9416666666666667 1.2416666666666667a6.151666666666666 6.151666666666666 0 0 1 -1.8400000000000003 1.1583333333333332 7.516666666666667 7.516666666666667 0 0 1 -5.193333333333333 -0.02666666666666667 6.316666666666667 6.316666666666667 0 0 1 -3.558333333333333 -3.4633333333333334 5.951666666666667 5.951666666666667 0 0 1 -0.21666666666666667 -0.5883333333333334h12.363333333333333a7.1 7.1 0 0 1 -0.6133333333333334 1.6800000000000002zm-19.983333333333334 -1.09a6.321666666666667 6.321666666666667 0 0 1 -3.5566666666666666 3.4633333333333334 7.516666666666667 7.516666666666667 0 0 1 -5.195 0.02666666666666667 6.166666666666667 6.166666666666667 0 0 1 -1.8400000000000003 -1.1583333333333332 4.420000000000001 4.420000000000001 0 0 1 -0.94 -1.2416666666666667 7.035 7.035 0 0 1 -0.6133333333333334 -1.6766666666666667H15.983333333333334c-0.06333333333333334 0.2 -0.13333333333333333 0.39666666666666667 -0.21666666666666667 0.5866666666666667zm24.168333333333333 -2.93a6.415000000000001 6.415000000000001 0 0 0 -0.1366666666666667 -0.7916666666666666l-16.05666666666667 -0.013333333333333334a6.553333333333334 6.553333333333334 0 0 1 1.905 -3.913333333333333c0.605 -0.5833333333333334 1.3166666666666669 -1.0416666666666667 2.1 -1.3483333333333334a6.616666666666667 6.616666666666667 0 0 1 7.473333333333334 1.595l2.535 -2.4833333333333334a9.5 9.5 0 0 0 -3.203333333333333 -2.2616666666666667 10.471666666666668 10.471666666666668 0 0 0 -4.24 -0.8166666666666667 10.583333333333334 10.583333333333334 0 0 0 -4.008333333333333 0.7616666666666667 10.011666666666667 10.011666666666667 0 0 0 -3.271666666666667 2.126666666666667 10.236666666666668 10.236666666666668 0 0 0 -2.2083333333333335 3.2333333333333334 9.770000000000001 9.770000000000001 0 0 0 -0.7766666666666667 3.106666666666667h-0.10500000000000001a9.761666666666667 9.761666666666667 0 0 0 -0.7783333333333334 -3.1083333333333334 10.216666666666667 10.216666666666667 0 0 0 -2.2083333333333335 -3.231666666666667A10 10 0 0 0 13.683333333333335 10.566666666666666a11.163333333333334 11.163333333333334 0 0 0 -8.248333333333333 0.051666666666666666A9.513333333333334 9.513333333333334 0 0 0 2.2333333333333334 12.883333333333335l2.5333333333333337 2.4833333333333334a6.943333333333334 6.943333333333334 0 0 1 7.473333333333334 -1.5966666666666667c0.7833333333333333 0.3066666666666667 1.4966666666666668 0.7666666666666667 2.1 1.35 0.6133333333333334 0.6 1.1 1.32 1.4316666666666666 2.1133333333333333 0.24333333333333332 0.5733333333333334 0.4033333333333333 1.18 0.475 1.8000000000000003l-16.058333333333334 0.013333333333333334A7.856666666666667 7.856666666666667 0 0 0 0 20.76166666666667a10.821666666666667 10.821666666666667 0 0 0 0.575 3.545 8.211666666666666 8.211666666666666 0 0 0 1.8000000000000003 2.9716666666666667c0.8800000000000001 0.9333333333333335 1.95 1.6666666666666667 3.1333333333333333 2.155a10.756666666666666 10.756666666666666 0 0 0 4.173333333333334 0.7616666666666667c1.3733333333333333 0.008333333333333333 2.7333333333333334 -0.25 4.006666666666667 -0.7616666666666667a9.976666666666667 9.976666666666667 0 0 0 3.2733333333333334 -2.1283333333333334 10.193333333333333 10.193333333333333 0 0 0 2.81 -5.126666666666667h0.45500000000000007a10.216666666666667 10.216666666666667 0 0 0 2.81 5.128333333333334 9.983333333333334 9.983333333333334 0 0 0 3.2733333333333334 2.126666666666667 10.575 10.575 0 0 0 4.008333333333333 0.7616666666666667 10.75 10.75 0 0 0 4.17 -0.7616666666666667 9.033333333333333 9.033333333333333 0 0 0 3.1366666666666667 -2.155 8.213333333333333 8.213333333333333 0 0 0 1.8000000000000003 -2.9716666666666667A10.866666666666667 10.866666666666667 0 0 0 40 20.76166666666667a7.928333333333333 7.928333333333333 0 0 0 -0.065 -0.9233333333333335z" fill="#000000" stroke-width="1.6667"></path></svg>