<svg role="img" viewBox="0 0 40 40" xmlns="http://www.w3.org/2000/svg" id="Hackerrank--Streamline-Simple-Icons" height="40" width="40"><desc>Hackerrank Streamline Icon: https://streamlinehq.com</desc><title>HackerRank</title><path d="M0 0v40h40V0zm16.583333333333332 13.336666666666668h3.0083333333333333c0.10166666666666667 0 0.185 0.08333333333333334 0.185 0.185v12.945c0 0.10166666666666667 -0.08333333333333334 0.185 -0.18333333333333335 0.185H16.583333333333332c-0.10166666666666667 0 -0.185 -0.08333333333333334 -0.185 -0.18333333333333335v-4.783333333333334H13.156666666666668v4.783333333333334c0 0.1 -0.08333333333333334 0.18333333333333335 -0.18333333333333335 0.18333333333333335H9.96a0.18333333333333335 0.18333333333333335 0 0 1 -0.18333333333333335 -0.18333333333333335V13.520000000000001c0 -0.1 0.08333333333333334 -0.18333333333333335 0.18333333333333335 -0.18333333333333335h3.0100000000000002c0.10166666666666667 0 0.18333333333333335 0.08333333333333334 0.18333333333333335 0.18333333333333335v4.781666666666667H16.400000000000002v-4.783333333333334c0 -0.1 0.08333333333333334 -0.18333333333333335 0.18333333333333335 -0.18333333333333335zm4.998333333333334 0h9.629999999999999c0.10166666666666667 0 0.185 0.08333333333333334 0.185 0.18333333333333335v12.945a0.18333333333333335 0.18333333333333335 0 0 1 -0.18333333333333335 0.18666666666666668h-9.633333333333335a0.18333333333333335 0.18333333333333335 0 0 1 -0.18333333333333335 -0.18333333333333335v-12.95c0 -0.1 0.08333333333333334 -0.18333333333333335 0.18333333333333335 -0.18333333333333335z" fill="#000000" stroke-width="1.6667"></path></svg>