<svg role="img" viewBox="0 0 40 40" xmlns="http://www.w3.org/2000/svg" id="Hackerearth--Streamline-Simple-Icons" height="40" width="40"><desc>Hackerearth Streamline Icon: https://streamlinehq.com</desc><title>HackerEarth</title><path d="M30.745 34.89333333333334H9.255V32.766666666666666h21.490000000000002zM34.955 0H15.851666666666667v10.85h0.17333333333333334c1.6433333333333333 -2.126666666666667 3.6766666666666667 -2.3333333333333335 5.8966666666666665 -2.1766666666666667 3.2783333333333338 0.195 6.483333333333333 2.2433333333333336 6.695000000000001 8.615v12.203333333333333c0 0.14833333333333334 -0.08333333333333334 0.295 -0.23000000000000004 0.295h-3.816666666666667c-0.15 0 -0.4216666666666667 -0.1366666666666667 -0.4216666666666667 -0.295V17.666666666666668c0 -2.9716666666666667 -0.9666666666666667 -5.191666666666667 -3.9016666666666673 -5.191666666666667 -2.1366666666666667 0 -4.3950000000000005 1.4866666666666668 -4.3950000000000005 4.616666666666667v12.361666666666666c0 0.14833333333333334 -0.013333333333333334 0.12 -0.16999999999999998 0.12h-3.816666666666667c-0.15 0 -0.48333333333333334 0.03666666666666667 -0.48333333333333334 -0.12V0H5.296666666666667c-1.405 0 -2.6350000000000002 1.1216666666666668 -2.6350000000000002 2.525v34.99333333333333c0 1.405 1.23 2.481666666666667 2.6333333333333337 2.481666666666667h29.66166666666667c1.405 0 2.3850000000000002 -1.0766666666666667 2.3850000000000002 -2.481666666666667V2.525c0 -1.4033333333333333 -0.98 -2.525 -2.3833333333333333 -2.525" fill="#000000" stroke-width="1.6667"></path></svg>