<svg role="img" viewBox="0 0 40 40" xmlns="http://www.w3.org/2000/svg" id="Leetcode--Streamline-Simple-Icons" height="40" width="40"><desc>Leetcode Streamline Icon: https://streamlinehq.com</desc><title>LeetCode</title><path d="M22.471666666666668 0a2.2900000000000005 2.2900000000000005 0 0 0 -1.6016666666666666 0.73L11.86 10.376666666666667l-6.423333333333334 6.876666666666668a8.776666666666667 8.776666666666667 0 0 0 -2.015 3.506666666666667 8.916666666666666 8.916666666666666 0 0 0 -0.20833333333333334 0.8550000000000001 9.211666666666668 9.211666666666668 0 0 0 0.10333333333333333 3.936666666666667 9.716666666666667 9.716666666666667 0 0 0 0.5816666666666667 1.6949999999999998 9.896666666666667 9.896666666666667 0 0 0 2.118333333333333 3.0300000000000002l7.128333333333334 6.988333333333333 0.065 0.06333333333333334c3.746666666666667 3.6083333333333334 9.753333333333334 3.555 13.438333333333334 -0.12333333333333334l3.993333333333333 -3.986666666666667c0.9000000000000001 -0.9000000000000001 0.9000000000000001 -2.3566666666666665 0.005 -3.2583333333333337a2.2966666666666664 2.2966666666666664 0 0 0 -3.251666666666667 -0.005l-3.993333333333333 3.986666666666667a5.035 5.035 0 0 1 -7.008333333333334 0.06333333333333334l-0.03333333333333333 -0.03166666666666667 -7.126666666666667 -6.988333333333333c-1.0866666666666667 -1.0666666666666667 -1.62 -2.4483333333333337 -1.58 -3.7716666666666665a4.466666666666667 4.466666666666667 0 0 1 0.11000000000000001 -0.8716666666666667 4.241666666666667 4.241666666666667 0 0 1 1.0316666666666667 -1.94L15.216666666666669 13.523333333333335c1.7633333333333334 -1.89 5.340000000000001 -2.1166666666666667 7.383333333333333 -0.4633333333333334l5.835 4.718333333333334c0.9883333333333333 0.8 2.435 0.645 3.2333333333333334 -0.345a2.3066666666666666 2.3066666666666666 0 0 0 -0.345 -3.2383333333333337l-5.833333333333334 -4.718333333333334c-1.3333333333333335 -1.0783333333333334 -2.9433333333333334 -1.7416666666666667 -4.623333333333334 -2.0033333333333334l3.358333333333334 -3.5966666666666667A2.3066666666666666 2.3066666666666666 0 0 0 22.471666666666668 0zm-4.776666666666667 21.358333333333334a2.3 2.3 0 0 0 -2.3 2.3033333333333332 2.3 2.3 0 0 0 2.3 2.3033333333333332H34.65a2.3 2.3 0 0 0 2.3 -2.3033333333333332 2.3 2.3 0 0 0 -2.3 -2.3033333333333332z" fill="#000000" stroke-width="1.6667"></path></svg>